<svg width="35" height="54" viewBox="0 0 35 54" fill="none" xmlns="http://www.w3.org/2000/svg">
<g clip-path="url(#clip0_3_42)">
<rect width="35" height="54" fill="white"/>
<ellipse cx="19.0135" cy="51.1613" rx="10.8213" ry="1.75671" fill="#FFE8B6"/>
<path d="M25.4806 25.1539C31.5403 25.1539 33.0552 28.9412 33.0552 30.8348" stroke="black" stroke-width="0.5"/>
<circle cx="32.9781" cy="30.9179" r="1.17537" fill="black"/>
<path d="M9.90895 23.7283C3.84927 23.7283 2.33435 19.941 2.33435 18.0473" stroke="black" stroke-width="0.5"/>
<circle cx="2.41153" cy="17.9642" r="1.17537" transform="rotate(-180 2.41153 17.9642)" fill="black"/>
<path d="M22.0991 50.6678C23.3249 43.6962 22.6098 41.8895 22.0991 41.8576" stroke="black" stroke-width="0.5"/>
<ellipse cx="22.961" cy="50.7636" rx="1.72375" ry="0.861879" fill="black"/>
<path d="M15.8228 50.6678C14.5971 43.6962 15.3121 41.8895 15.8228 41.8576" stroke="black" stroke-width="0.5"/>
<ellipse rx="1.72375" ry="0.861879" transform="matrix(-1 0 0 1 14.961 50.7636)" fill="black"/>
<g clip-path="url(#clip1_3_42)">
<path d="M27.0972 25.552L27.0938 25.3059L26.8776 12.3549C26.6092 16.6682 23.0024 19.4448 18.5313 18.6228C14.1871 17.8238 10.5653 13.9114 10.0024 9.62254L10.0417 17.0813L10.0911 20.567C10.1155 22.2893 11.1114 24.0007 12.1461 24.9535C12.925 25.6715 13.7253 25.96 14.1458 25.4902C14.3881 25.2208 14.7358 25.1544 15.1378 25.2258C16.4302 25.4542 18.2999 27.1448 19.1678 28.4082C19.4523 28.8214 19.7976 29.1333 20.1772 29.3712C21.3324 30.0953 22.8355 30.0697 24.1657 29.6209C25.5114 29.1662 26.6721 28.2863 27.1041 27.3325L27.1213 27.3005L27.0972 25.552V25.552Z" fill="#FFCC4D"/>
<path d="M23.8275 26.2687C23.8197 25.7186 23.3703 25.4464 22.8225 25.6599C22.2753 25.8742 21.8379 26.4935 21.8457 27.0436C21.8535 27.5936 22.3029 27.8659 22.8507 27.6524C23.3979 27.4381 23.8346 26.8195 23.8275 26.2687V26.2687Z" fill="#D99E82"/>
<path d="M25.0449 21.3521C24.4965 21.5317 24.0475 21.2319 24.039 20.6811C24.0305 20.1304 24.4683 19.5393 25.0166 19.3597C25.5643 19.1794 26.0141 19.4799 26.0226 20.0307C26.0311 20.5815 25.5932 21.1725 25.0449 21.3521Z" fill="#FFAC33"/>
<path d="M12.0976 21.5356C11.543 21.2684 11.088 20.6059 11.0803 20.0558C11.0725 19.5057 11.5147 19.276 12.0694 19.5432C12.6241 19.8104 13.079 20.473 13.0868 21.0231C13.0939 21.5739 12.6516 21.8036 12.0976 21.5356Z" fill="#D99E82"/>
<path d="M20.1779 29.3719C19.7983 29.134 19.4523 28.8228 19.1686 28.4089C18.3006 27.1454 16.4309 25.4563 15.1385 25.2264L15.3995 43.6405C17.7732 44.7652 20.3337 44.2028 20.3887 44.1921L20.1779 29.3719ZM27.2244 36.2646L27.2498 36.2642L27.1792 31.2839C27.9349 29.0717 30.1278 29.3624 30.1137 28.3669C30.1001 27.411 28.148 26.4939 27.098 25.5526L27.1227 27.3004C26.7029 28.2674 25.5276 29.1624 24.1671 29.6223L24.3461 42.2471C26.7895 40.1079 27.175 37.3742 27.2244 36.2646V36.2646Z" fill="#BDBDBD"/>
<path d="M12.1454 24.9542C11.1121 24.0014 10.1155 22.2893 10.0904 20.5677L10.0551 18.0775C9.56087 18.3334 9.073 19.0878 9.08006 19.5856C9.09417 20.5811 6.12035 21.619 7.15821 24.5928C7.85477 26.5878 10.1885 27.5384 10.2167 29.5308C10.2167 29.5308 10.2906 35.8866 10.3156 36.5036C10.3406 37.1206 10.6907 39.4663 12.3773 41.4126L12.1454 24.9542V24.9542Z" fill="#808285"/>
<path d="M15.1385 25.2264C14.7365 25.1551 14.3881 25.2208 14.1465 25.4909C13.7254 25.96 12.925 25.6715 12.1468 24.9542L12.3801 41.4125C13.8154 43.0392 15.3298 43.6089 15.4002 43.6398L15.1385 25.2264Z" fill="#A6A6A6"/>
<path d="M24.1664 29.6216C22.8362 30.0704 21.3331 30.0959 20.1779 29.3719L20.388 44.1928C22.6789 43.7685 24.2713 42.3111 24.3454 42.2464L24.1664 29.6216V29.6216Z" fill="#D8D8D8"/>
<path d="M14.7387 5.05704C15.0001 4.88715 15.3074 4.76611 15.6327 4.7615C16.5461 4.74855 17.5832 4.86963 18.3922 5.61979C18.9139 6.10317 19.4295 6.75496 19.7151 7.84703L24.7428 12.8165C24.8509 12.3553 24.9111 11.8672 24.9038 11.3497C24.8531 7.77491 21.905 4.34163 18.3195 3.68315C16.627 3.37123 15.1012 3.74009 13.9605 4.58507C14.2884 4.61507 14.5794 4.79057 14.7387 5.05704V5.05704ZM24.7375 12.8364L24.7422 12.8187L24.7393 12.8159L24.7375 12.8364ZM12.901 6.66646C12.8977 6.63681 12.8832 6.61155 12.8828 6.58045C12.8801 6.3952 12.9428 6.22883 13.0298 6.07909C12.956 5.95851 12.9109 5.82266 12.8898 5.6794C13.181 5.26652 13.5372 4.90435 13.936 4.6031C13.0655 5.25614 12.4282 6.19158 12.1239 7.32525L12.1246 7.32312C12.3014 7.02501 12.5674 6.78575 12.901 6.66646V6.66646Z" fill="#FFAC33"/>
<path d="M13.957 4.5844L13.936 4.60309L13.9598 4.58578L13.957 4.5844Z" fill="#C1694F"/>
<path d="M26.8776 12.3549C26.8909 12.1447 26.9042 11.9344 26.9011 11.7167C26.8341 7.04106 22.9873 2.5152 18.2912 1.68931C13.7235 0.886351 9.83473 4.07922 9.92136 8.59403C9.92765 8.93763 9.95725 9.28019 10.0024 9.62112C10.5653 13.91 14.1878 17.823 18.5313 18.6214C23.0024 19.4448 26.6092 16.6682 26.8776 12.3549V12.3549ZM24.7422 12.8187L24.7375 12.8364C24.0907 15.5505 21.5618 17.1924 18.503 16.6304C14.9175 15.9719 11.9694 12.5386 11.9187 8.96245C11.9104 8.37985 11.9869 7.83495 12.1232 7.32455C12.4275 6.19088 13.0648 5.25544 13.9353 4.6024L13.9562 4.58371L13.9598 4.58437C15.1012 3.74008 16.627 3.37123 18.3195 3.68315C21.905 4.34304 24.8531 7.7749 24.9038 11.3511C24.9112 11.8686 24.8509 12.3567 24.7429 12.8179" fill="#FFE8B6"/>
<path d="M18.503 16.6304C21.5618 17.1924 24.0907 15.5505 24.7375 12.8364L24.7393 12.8159L24.7422 12.8186L24.7429 12.8165L19.7151 7.84702C19.4288 6.75425 18.9132 6.10246 18.3922 5.61978C17.5832 4.86961 16.5462 4.74854 15.6327 4.76148C15.3074 4.76609 15.0001 4.88714 14.7387 5.05703C14.5794 4.79056 14.2884 4.61506 13.9598 4.58436L13.936 4.60167C13.5372 4.90292 13.1809 5.2651 12.8898 5.67797C12.9109 5.82264 12.956 5.95849 13.0298 6.07908C12.9436 6.22952 12.8801 6.39519 12.8828 6.58043C12.8832 6.61154 12.8977 6.63679 12.901 6.66645C12.5675 6.78574 12.3014 7.025 12.1246 7.32311L12.1239 7.32524C11.9869 7.83494 11.9105 8.38125 11.9194 8.96313C11.9694 12.5386 14.9175 15.9719 18.503 16.6304Z" fill="#C1694F"/>
<path d="M19.568 7.99833L24.5986 13.2662C24.7021 12.9819 24.7832 12.6731 24.8328 12.3308C24.3082 9.14041 21.5929 6.27099 18.3477 5.67416L18.319 5.69508C18.8393 6.17848 19.2817 6.90556 19.568 7.99833Z" fill="#F4900C"/>
<path d="M15.1892 8.24921C15.5836 8.63262 16.2142 8.62368 16.5976 8.22924C16.981 7.83481 16.9721 7.20424 16.5776 6.82083C16.1832 6.43742 15.5526 6.44636 15.1692 6.84079C14.7858 7.23523 14.7948 7.8658 15.1892 8.24921Z" fill="#D99E82"/>
<path d="M14.3796 11.1035C14.9713 11.6787 15.9171 11.6652 16.4923 11.0736C17.0674 10.4819 17.054 9.53608 16.4623 8.96097C15.8707 8.38585 14.9248 8.39926 14.3497 8.99092C13.7746 9.58257 13.788 10.5284 14.3796 11.1035Z" fill="#D99E82"/>
<path d="M16.256 13.2147C16.6504 13.5981 17.281 13.5892 17.6644 13.1948C18.0478 12.8003 18.0389 12.1698 17.6444 11.7864C17.25 11.4029 16.6194 11.4119 16.236 11.8063C15.8526 12.2008 15.8616 12.8313 16.256 13.2147Z" fill="#D99E82"/>
<path d="M15.0174 6.40592C15.2146 6.59763 15.5299 6.59316 15.7216 6.39594C15.9133 6.19872 15.9088 5.88344 15.7116 5.69173C15.5144 5.50003 15.1991 5.5045 15.0074 5.70171C14.8157 5.89893 14.8202 6.21422 15.0174 6.40592Z" fill="#D99E82"/>
<path d="M13.2681 13.2571C13.6625 13.6405 14.2931 13.6316 14.6765 13.2371C15.0599 12.8427 15.0509 12.2121 14.6565 11.8287C14.2621 11.4453 13.6315 11.4542 13.2481 11.8487C12.8647 12.2431 12.8736 12.8737 13.2681 13.2571Z" fill="#D99E82"/>
<path d="M17.3118 7.07704C17.9034 7.65215 18.8493 7.63874 19.4244 7.04709C19.9995 6.45543 19.9861 5.50958 19.3945 4.93447C18.8028 4.35935 17.857 4.37276 17.2818 4.96441C16.7067 5.55607 16.7201 6.50192 17.3118 7.07704Z" fill="#FFD983"/>
<path d="M15.983 14.5071C15.9752 13.957 15.5234 13.5179 14.9726 13.525C14.5753 13.5306 14.2435 13.7715 14.0877 14.1082C14.5144 14.5718 14.9892 14.9915 15.5056 15.3512C15.7908 15.1724 15.9874 14.8684 15.983 14.5071V14.5071Z" fill="#D99E82"/>
<path d="M23.9506 14.3949C23.9428 13.8448 23.4903 13.405 22.9402 13.4128C22.7578 13.4153 22.5903 13.4701 22.4437 13.5577C22.2961 13.4742 22.1257 13.4243 21.944 13.4262C22.4941 13.4184 22.9353 12.9659 22.9275 12.4158C23.4719 12.4081 23.9154 11.9634 23.9084 11.4196L23.9081 11.397C23.9003 10.8512 23.4465 10.4156 22.8993 10.4234C22.8966 10.2382 22.8293 10.075 22.7388 9.92711C22.825 9.77667 22.8871 9.61244 22.8837 9.4265C22.8791 9.09843 22.7138 8.81225 22.4673 8.63399C22.7135 8.29742 22.8626 7.88444 22.8562 7.43477C22.8406 6.33603 21.9371 5.4578 20.8356 5.47341C19.734 5.48903 18.8558 6.39252 18.8714 7.49267C18.8827 8.24424 19.3111 8.88382 19.9297 9.21449C19.9096 9.29681 19.8953 9.38187 19.8958 9.47026C19.3457 9.47806 18.9059 9.93053 18.9137 10.4806C18.9182 10.8002 19.0749 11.078 19.3108 11.2571C19.2278 11.4372 19.179 11.6352 19.1827 11.8466C19.1906 12.4066 19.5347 12.8819 20.0185 13.0872C19.9748 13.2009 19.9504 13.325 19.9516 13.4544C19.4015 13.4622 18.9617 13.9147 18.9695 14.4648C18.9773 15.0148 19.429 15.4539 19.9798 15.4468C19.9813 15.5529 20.0039 15.6516 20.0357 15.7466L20.046 15.779C20.1894 16.1624 20.5567 16.4344 20.9894 16.4282C21.5395 16.4204 21.9793 15.968 21.9715 15.4179C22.1044 15.416 22.2299 15.386 22.3445 15.337C22.3731 15.309 22.3988 15.2796 22.4267 15.2509C22.5837 15.3491 22.7683 15.4059 22.9677 15.4031C23.5192 15.3967 23.959 14.9442 23.9506 14.3949Z" fill="#77B255"/>
<path d="M22.1024 14.2747C22.2996 14.4664 22.6149 14.4619 22.8066 14.2647C22.9983 14.0675 22.9939 13.7522 22.7966 13.5605C22.5994 13.3688 22.2841 13.3732 22.0924 13.5705C21.9007 13.7677 21.9052 14.083 22.1024 14.2747Z" fill="#A6D388"/>
<path d="M17.2946 16.1893C17.689 16.5727 18.3196 16.5637 18.703 16.1693C19.0864 15.7749 19.0775 15.1443 18.683 14.7609C18.2886 14.3775 17.658 14.3864 17.2746 14.7809C16.8912 15.1753 16.9001 15.8059 17.2946 16.1893Z" fill="#FFD983"/>
<path d="M19.9459 12.9567C19.9361 12.2666 19.4585 11.6991 18.8205 11.5363C18.8866 11.3635 18.925 11.1763 18.9215 10.9791C18.9187 10.7825 18.8757 10.5957 18.8047 10.4249C19.4379 10.244 19.8992 9.66328 19.8895 8.97321C19.8778 8.14739 19.2001 7.48871 18.3743 7.50042C17.5485 7.51213 16.8898 8.18975 16.9015 9.01557C16.9043 9.21212 16.9473 9.39891 17.0183 9.56975C16.3851 9.75057 15.9238 10.3313 15.9335 11.0214C15.9433 11.7115 16.4209 12.2789 17.059 12.4417C16.9929 12.6145 16.9545 12.8018 16.958 12.999C16.9697 13.8248 17.6473 14.4835 18.4731 14.4718C19.2983 14.4608 19.9576 13.7825 19.9459 12.9567V12.9567Z" fill="#FFD983"/>
<path d="M17.0751 13.131C17.5682 13.6103 18.3564 13.5991 18.8357 13.1061C19.3149 12.613 19.3038 11.8248 18.8107 11.3455C18.3177 10.8663 17.5294 10.8774 17.0502 11.3705C16.5709 11.8635 16.5821 12.6517 17.0751 13.131Z" fill="#FFE8B6"/>
<path d="M17.8847 10.2767C18.1805 10.5642 18.6535 10.5575 18.941 10.2617C19.2286 9.96588 19.2219 9.49295 18.926 9.20539C18.6302 8.91783 18.1573 8.92454 17.8697 9.22037C17.5822 9.51619 17.5889 9.98912 17.8847 10.2767Z" fill="#FFE8B6"/>
<path d="M17.8565 8.28424C18.1523 8.5718 18.6252 8.5651 18.9128 8.26927C19.2003 7.97344 19.1936 7.50052 18.8978 7.21296C18.602 6.9254 18.129 6.93211 17.8415 7.22793C17.5539 7.52376 17.5606 7.99669 17.8565 8.28424Z" fill="#FFE8B6"/>
<path d="M20.0119 7.33082C20.2091 7.52252 20.5244 7.51805 20.7161 7.32084C20.9078 7.12362 20.9033 6.80833 20.7061 6.61663C20.5089 6.42492 20.1936 6.42939 20.0019 6.62661C19.8102 6.82383 19.8146 7.13911 20.0119 7.33082Z" fill="#A6D388"/>
<path d="M23.2281 13.1166C23.6225 13.5 24.2531 13.4911 24.6365 13.0967C25.0199 12.7022 25.011 12.0717 24.6165 11.6882C24.2221 11.3048 23.5915 11.3138 23.2081 11.7082C22.8247 12.1026 22.8336 12.7332 23.2281 13.1166Z" fill="#77B255"/>
<path d="M21.2505 14.1411C21.6449 14.5245 22.2755 14.5155 22.6589 14.1211C23.0423 13.7267 23.0334 13.0961 22.6389 12.7127C22.2445 12.3293 21.6139 12.3382 21.2305 12.7327C20.8471 13.1271 20.856 13.7577 21.2505 14.1411Z" fill="#A6D388"/>
<path d="M22.9049 10.9226C22.9005 10.6129 22.8024 10.3279 22.6386 10.0919C22.7923 9.91362 22.8866 9.68316 22.8838 9.42932C22.876 8.87925 22.4242 8.44013 21.8734 8.44723C21.8656 7.89715 21.4139 7.45804 20.8631 7.46514C20.313 7.47293 19.8739 7.92468 19.881 8.47547C19.8881 9.02626 20.3405 9.46466 20.8913 9.45756C20.8918 9.48726 20.8985 9.51616 20.9018 9.54581C20.3213 9.757 19.9077 10.3116 19.9163 10.9657C19.928 11.7915 20.6056 12.4501 21.4314 12.4384C22.258 12.426 22.9166 11.7484 22.9049 10.9226Z" fill="#A6D388"/>
<path d="M21.8406 8.22847C22.1364 8.51603 22.6094 8.50933 22.8969 8.2135C23.1845 7.91767 23.1778 7.44475 22.882 7.15719C22.5861 6.86963 22.1132 6.87634 21.8256 7.17216C21.5381 7.46799 21.5448 7.94092 21.8406 8.22847Z" fill="#DD2E44"/>
<path d="M22.9074 13.194C23.2032 13.4816 23.6762 13.4749 23.9637 13.179C24.2513 12.8832 24.2446 12.4103 23.9488 12.1227C23.6529 11.8352 23.18 11.8419 22.8924 12.1377C22.6049 12.4335 22.6116 12.9064 22.9074 13.194Z" fill="#DD2E44"/>
<path d="M20.2684 15.1514C20.6628 15.5348 21.2934 15.5259 21.6768 15.1314C22.0602 14.737 22.0513 14.1064 21.6568 13.723C21.2624 13.3396 20.6318 13.3485 20.2484 13.743C19.865 14.1374 19.874 14.768 20.2684 15.1514Z" fill="#DD2E44"/>
<path d="M24.8762 9.39967C24.8684 8.84959 24.4159 8.40978 23.8658 8.41758C23.3157 8.42537 22.8759 8.87784 22.8837 9.42791C22.3337 9.43571 21.8938 9.88817 21.9016 10.4382C21.9094 10.9883 22.3612 11.4274 22.912 11.4203C23.462 11.4125 23.9019 10.9601 23.8941 10.41C24.4441 10.4022 24.884 9.94974 24.8762 9.39967Z" fill="#77B255"/>
<path d="M21.2074 11.1524C21.6019 11.5358 22.2324 11.5269 22.6158 11.1325C22.9992 10.738 22.9903 10.1075 22.5959 9.72406C22.2014 9.34065 21.5709 9.34958 21.1875 9.74402C20.804 10.1385 20.813 10.769 21.2074 11.1524Z" fill="#DD2E44"/>
<path d="M24.0377 10.2623C24.2349 10.454 24.5502 10.4495 24.7419 10.2523C24.9336 10.0551 24.9291 9.73981 24.7319 9.5481C24.5347 9.3564 24.2194 9.36087 24.0277 9.55808C23.836 9.7553 23.8404 10.0706 24.0377 10.2623Z" fill="#DD2E44"/>
</g>
<circle cx="14.9286" cy="21.5" r="2.5" fill="black"/>
<circle cx="13.9801" cy="20.5514" r="0.551448" fill="white"/>
<circle cx="23.4255" cy="21.5" r="2.5" fill="black"/>
<circle cx="22.477" cy="20.5514" r="0.551448" fill="white"/>
<path d="M22 26C22 26.8284 20.6569 28.5 19 28.5C17.3431 28.5 16 26.8284 16 26C16 25.1716 17.3431 26 19 26C20.6569 26 22 25.1716 22 26Z" fill="black"/>
<path d="M20.5 27.9368C20.5 28.2129 19.5523 28.5312 19 28.5312C18.4477 28.5312 17.5 28.2129 17.5 27.9368C17.5 27.6606 18.4477 27.4368 19 27.4368C19.5523 27.4368 20.5 27.6606 20.5 27.9368Z" fill="#DD2E44"/>
</g>
<defs>
<clipPath id="clip0_3_42">
<rect width="35" height="54" fill="white"/>
</clipPath>
<clipPath id="clip1_3_42">
<rect width="36" height="36" fill="white" transform="translate(17.6392 -2.45329) rotate(44.1879)"/>
</clipPath>
</defs>
</svg>
